<svg width="250" height="250" viewBox="0 0 250 250" fill="none" xmlns="http://www.w3.org/2000/svg">
<circle cx="125" cy="125" r="125" fill="#3A719E"/>
<g filter="url(#filter0_d_83_18)">
<path d="M42.6662 109.903V82.887H48.5324L58.3739 98.9034L54.1671 98.8649L64.1244 82.887H69.7591V109.903H63.3911V101.489C63.3911 99.1736 63.4425 97.0895 63.5455 95.237C63.6741 93.3845 63.8799 91.5449 64.163 89.7181L64.8963 91.725L57.409 103.342H54.8618L47.529 91.8022L48.2623 89.7181C48.5453 91.442 48.7383 93.2173 48.8412 95.0441C48.9698 96.8451 49.0342 98.9935 49.0342 101.489V109.903H42.6662ZM76.5489 109.903V82.887H95.3827V88.4831H82.9169V104.307H95.7687V109.903H76.5489ZM79.6364 98.8263V93.5003H93.646V98.8263H79.6364ZM101.424 109.903V82.887H107.29L117.132 98.9034L112.925 98.8649L122.882 82.887H128.517V109.903H122.149V101.489C122.149 99.1736 122.2 97.0895 122.303 95.237C122.432 93.3845 122.638 91.5449 122.921 89.7181L123.654 91.725L116.167 103.342H113.62L106.287 91.8022L107.02 89.7181C107.303 91.442 107.496 93.2173 107.599 95.0441C107.728 96.8451 107.792 98.9935 107.792 101.489V109.903H101.424ZM135.307 109.903V82.887H154.14V88.4831H141.675V104.307H154.526V109.903H135.307ZM138.394 98.8263V93.5003H152.404V98.8263H138.394ZM160.182 109.903V82.887H172.339C174.063 82.887 175.619 83.26 177.009 84.0062C178.424 84.7523 179.53 85.7815 180.328 87.0937C181.125 88.3802 181.524 89.8467 181.524 91.4934C181.524 93.1915 181.125 94.7224 180.328 96.0861C179.53 97.424 178.437 98.4789 177.047 99.2508C175.658 100.023 174.088 100.409 172.339 100.409H166.434V109.903H160.182ZM175.156 109.903L168.286 97.707L175.002 96.7422L182.643 109.903H175.156ZM166.434 95.3914H171.76C172.429 95.3914 173.008 95.2499 173.496 94.9669C174.011 94.6581 174.397 94.2336 174.654 93.6933C174.937 93.153 175.079 92.5355 175.079 91.8408C175.079 91.1461 174.924 90.5414 174.616 90.0268C174.307 89.4865 173.857 89.0749 173.265 88.7918C172.699 88.5088 172.004 88.3673 171.181 88.3673H166.434V95.3914ZM192.344 109.903V96.4334L192.614 98.3245L181.692 82.887H189.14L197.477 94.8511L194.08 94.7353L201.606 82.887H208.823L198.364 98.7491L198.943 96.1247V109.903H192.344Z" fill="white"/>
<path d="M63.674 169.075C60.6251 169.075 57.8078 168.554 55.222 167.512C52.6362 166.432 50.3784 164.946 48.4487 163.055C46.5576 161.164 45.0911 158.964 44.049 156.455C43.007 153.908 42.486 151.149 42.486 148.177C42.486 145.244 43.007 142.523 44.049 140.014C45.1297 137.467 46.6348 135.267 48.5645 133.415C50.4942 131.524 52.752 130.057 55.3377 129.015C57.9621 127.973 60.7795 127.452 63.7898 127.452C65.9125 127.452 67.958 127.741 69.9262 128.32C71.8945 128.899 73.6699 129.71 75.2522 130.752C76.8346 131.794 78.1467 132.971 79.1888 134.283L74.4417 139.262C73.3611 138.22 72.2419 137.351 71.0841 136.657C69.9648 135.962 68.7877 135.422 67.5527 135.036C66.3177 134.65 65.0441 134.457 63.7319 134.457C61.8022 134.457 60.0076 134.804 58.3481 135.499C56.7271 136.193 55.2992 137.158 54.0641 138.393C52.8677 139.628 51.9222 141.076 51.2275 142.735C50.5328 144.395 50.1855 146.209 50.1855 148.177C50.1855 150.068 50.5328 151.863 51.2275 153.561C51.9608 155.259 52.9642 156.745 54.2378 158.018C55.5114 159.292 56.978 160.295 58.6375 161.029C60.3357 161.723 62.1303 162.071 64.0214 162.071C65.4494 162.071 66.7808 161.858 68.0158 161.434C69.2509 161.009 70.3508 160.43 71.3156 159.697C72.2805 158.925 73.0138 158.038 73.5155 157.034C74.0558 156.031 74.326 154.95 74.326 153.792V152.519L75.368 153.734H63.3846V147.019H81.736C81.8132 147.444 81.8711 147.926 81.9097 148.466C81.9482 148.968 81.9675 149.47 81.9675 149.972C82.0061 150.435 82.0254 150.84 82.0254 151.187C82.0254 153.85 81.5623 156.282 80.6361 158.481C79.7098 160.643 78.3976 162.515 76.6995 164.097C75.0399 165.679 73.0909 166.914 70.8525 167.802C68.6526 168.651 66.2598 169.075 63.674 169.075ZM84.8458 168.497L100.65 127.973H107.713L123.401 168.497H115.586L106.902 145.456C106.709 144.993 106.439 144.26 106.092 143.256C105.783 142.253 105.436 141.172 105.05 140.014C104.664 138.818 104.316 137.718 104.008 136.714C103.699 135.672 103.467 134.92 103.313 134.457L104.76 134.399C104.529 135.171 104.259 136.039 103.95 137.004C103.641 137.969 103.313 138.972 102.966 140.014C102.618 141.056 102.271 142.06 101.924 143.025C101.615 143.989 101.325 144.858 101.055 145.63L92.3716 168.497H84.8458ZM92.0243 159.234L94.6294 152.692H113.097L115.875 159.234H92.0243ZM129.783 168.497V127.973H136.904L151.666 151.998L147.498 151.94L162.434 127.973H169.207V168.497H161.739V153.271C161.739 149.798 161.816 146.672 161.97 143.893C162.163 141.114 162.472 138.355 162.897 135.615L163.823 138.104L151.261 157.497H147.44L135.283 138.278L136.093 135.615C136.518 138.2 136.807 140.863 136.962 143.604C137.155 146.305 137.251 149.528 137.251 153.271V168.497H129.783ZM180.098 168.497V127.973H206.612V134.804H187.508V161.665H206.844V168.497H180.098ZM183.572 151.129V144.414H203.66V151.129H183.572Z" fill="white"/>
</g>
<defs>
<filter id="filter0_d_83_18" x="41.3798" y="82.887" width="168.55" height="89.5071" filterUnits="userSpaceOnUse" color-interpolation-filters="sRGB">
<feFlood flood-opacity="0" result="BackgroundImageFix"/>
<feColorMatrix in="SourceAlpha" type="matrix" values="0 0 0 0 0 0 0 0 0 0 0 0 0 0 0 0 0 0 127 0" result="hardAlpha"/>
<feOffset dy="2.21239"/>
<feGaussianBlur stdDeviation="0.553097"/>
<feComposite in2="hardAlpha" operator="out"/>
<feColorMatrix type="matrix" values="0 0 0 0 0 0 0 0 0 0 0 0 0 0 0 0 0 0 0.1 0"/>
<feBlend mode="normal" in2="BackgroundImageFix" result="effect1_dropShadow_83_18"/>
<feBlend mode="normal" in="SourceGraphic" in2="effect1_dropShadow_83_18" result="shape"/>
</filter>
</defs>
</svg>
